<?xml version="1.0" encoding="UTF-8" standalone="no"?>
<!-- Created with Inkscape (http://www.inkscape.org/) -->

<svg
   width="210mm"
   height="297mm"
   viewBox="0 0 210 297"
   version="1.1"
   id="svg1"
   xml:space="preserve"
   inkscape:version="1.4 (86a8ad7, 2024-10-11)"
   sodipodi:docname="logo.svg"
   xmlns:inkscape="http://www.inkscape.org/namespaces/inkscape"
   xmlns:sodipodi="http://sodipodi.sourceforge.net/DTD/sodipodi-0.dtd"
   xmlns="http://www.w3.org/2000/svg"
   xmlns:svg="http://www.w3.org/2000/svg"><sodipodi:namedview
     id="namedview1"
     pagecolor="#ffffff"
     bordercolor="#000000"
     borderopacity="0.25"
     inkscape:showpageshadow="2"
     inkscape:pageopacity="0.0"
     inkscape:pagecheckerboard="0"
     inkscape:deskcolor="#d1d1d1"
     inkscape:document-units="mm"
     inkscape:zoom="0.74564394"
     inkscape:cx="396.30175"
     inkscape:cy="561.25984"
     inkscape:window-width="1920"
     inkscape:window-height="1017"
     inkscape:window-x="-8"
     inkscape:window-y="-8"
     inkscape:window-maximized="1"
     inkscape:current-layer="layer1" /><defs
     id="defs1" /><g
     inkscape:label="Layer 1"
     inkscape:groupmode="layer"
     id="layer1"><path
       style="fill:#5d4576;stroke:none"
       d="M -0.5906662,-9.7885585 V 134.93852 h 0.264583 V 32.280192 2.9114415 c 0,-3.57579957 1.112932,-9.41722 -0.264583,-12.7 M 37.773918,29.634352 c -1.005841,3.67753 -2.9997,7.18839 -4.697171,10.58334 -4.172917,8.34583 -9.140809,16.23578 -13.749351,24.34166 -3.633554,6.39099 -7.172774,12.85977 -10.165226,19.57917 -2.7047072,6.07329 -4.8024292,12.3702 -6.5378222,18.785418 -0.622099,2.29971 -1.91809,5.53841 -1.52605,7.93648 0.325087,1.98851 2.292716,1.87071 3.867286,1.85208 3.2469902,-0.0384 8.9244722,-0.47103 10.8960972,-3.44265 1.786299,-2.69229 2.283105,-6.93691 2.97452,-10.050078 1.08872,-4.90207 2.561264,-9.734903 3.96875,-14.55208 4.970544,-17.0119 10.768699,-33.81491 17.350217,-50.27084 2.254538,-5.63707 4.63796,-11.357 6.31264,-17.19791 0.408559,-1.42496 1.882165,-4.63174 0.60409,-5.92168 -0.698173,-0.70466 -1.756644,0.0432 -2.418813,0.41647 -2.215171,1.24881 -4.371947,1.54048 -6.879167,1.53646 -7.245575,-0.0116 -13.76361,-3.4472805 -21.166667,-2.41575 -2.811246,0.39171 -5.841267,0.79246 -7.362195,3.47428 -3.0481222,5.37469 -4.0159822,12.81094 -5.4292662,18.78522 -0.312442,1.32076 -1.901545,5.44482 -0.112693,6.18626 1.120265,0.46433 2.425301,-0.43283 2.845291,-1.4352 1.4528212,-3.46735 1.9192332,-7.58413 5.8255302,-9.28082 3.063253,-1.33053 6.358809,-0.44384 9.525,-0.003 5.4259,0.75605 10.409612,1.32753 15.875,1.09283 m 31.750001,54.23959 c -1.001214,6.80485 -3.917909,13.78196 -5.89494,20.372908 -0.565502,1.88526 -2.447481,5.99061 -1.241458,7.85728 0.686186,1.06206 2.612252,0.93185 3.696815,0.82906 3.129081,-0.29657 7.875941,-0.22691 10.231578,-2.65726 1.663336,-1.7161 2.114673,-4.59519 2.702387,-6.82283 1.109429,-4.205128 2.06042,-8.460678 3.03331,-12.699998 0.408656,-1.780693 0.539373,-4.167833 1.403354,-5.78164 0.6082,-1.13602 2.184638,-0.83252 3.266871,-0.83294 2.217554,-8.6e-4 5.975674,0.20511 7.880944,-1.08201 2.23211,-1.50792 2.80807,-7.28206 3.283214,-9.76591 0.16464,-0.86067 0.63644,-2.78574 -0.400354,-3.27891 -1.03497,-0.4923 -2.59391,0.29098 -3.62005,0.52059 -2.41614,0.54065 -4.93257,0.9046 -7.408337,0.90624 0.738925,-5.48732 2.457437,-11.01478 3.734787,-16.40417 2.2649,-9.55602 4.31023,-19.1902 6.1238,-28.83958 0.66389,-3.53232 1.422904,-7.05231 2.099724,-10.58333 0.23627,-1.23265 0.88204,-3.08482 -0.16679,-4.09737 -1.199114,-1.15762 -3.714094,-0.67812 -5.176934,-0.42076 -5.419077,0.95336 -9.216398,6.56134 -12.434403,10.60355 -10.668026,13.40032 -20.483606,28.39951 -27.2529,44.18541 -1.661938,3.87562 -3.516589,7.69268 -4.12023,11.90625 -0.159555,1.11374 -0.530035,3.44939 0.310926,4.34869 1.028721,1.10006 3.504728,0.65176 4.867436,0.83069 4.918115,0.64577 10.123446,0.69316 15.08125,0.90604 m 53.710421,0.52916 c -2.58835,5.84647 -3.87255,12.64534 -5.66854,18.785418 -0.75891,2.59455 -2.40665,5.96792 -1.96498,8.71962 0.26499,1.65101 2.35081,1.66331 3.66477,1.57545 3.15625,-0.21107 8.13665,-0.24416 10.49616,-2.6785 1.54243,-1.59136 2.02681,-4.22031 2.56662,-6.29365 1.14158,-4.38467 2.17483,-8.799998 3.13234,-13.229168 0.36462,-1.686693 0.55205,-4.601163 1.56891,-6.001303 0.68465,-0.942717 2.39118,-0.611647 3.40263,-0.613277 2.14503,-0.003 5.77601,0.16126 7.61637,-1.08202 2.29652,-1.55145 2.71157,-7.24079 3.26198,-9.7659 0.19433,-0.89156 0.64976,-2.77338 -0.37912,-3.33077 -0.94138,-0.51 -2.41307,0.28888 -3.35548,0.51181 -2.49164,0.58943 -5.11335,0.96518 -7.67291,0.96688 0.75204,-5.58484 2.53562,-11.17466 3.79644,-16.66875 2.1586,-9.40625 4.15378,-18.84795 6.04601,-28.31042 0.72255,-3.6133 1.42227,-7.22954 2.11586,-10.84791 0.23628,-1.23264 0.88202,-3.08484 -0.1668,-4.09737 -1.21838,-1.17623 -3.95832,-0.71779 -5.44151,-0.39668 -5.43685,1.17708 -9.06581,6.77792 -12.36641,10.84405 -10.76827,13.26582 -20.06805,28.31112 -27.01976,43.92083 -1.71253,3.84537 -3.55435,7.70101 -4.15677,11.90625 -0.15956,1.11375 -0.53005,3.44938 0.31092,4.34868 1.02871,1.10006 3.50473,0.65177 4.86743,0.8307 4.9504,0.64999 10.35232,0.86469 15.34584,0.90603 m 74.6125,-53.44583 c -3.36052,12.2869 -12.10498,23.36823 -18.17541,34.39583 -3.60059,6.54087 -7.20066,13.05291 -10.31793,19.843747 -2.7413,5.971813 -4.7155,12.210853 -6.50842,18.520841 -0.68875,2.42398 -2.0885,5.92913 -1.67386,8.46565 0.32506,1.98851 2.29272,1.87071 3.86729,1.85208 3.25776,-0.0386 8.91389,-0.45511 10.89608,-3.44265 1.78631,-2.69229 2.2831,-6.93692 2.97453,-10.05008 1.08874,-4.902078 2.56125,-9.734908 3.96875,-14.552091 4.97068,-17.012047 10.76852,-33.814227 17.35022,-50.270827 2.25453,-5.63711 4.63791,-11.35699 6.31263,-17.19791 0.4076,-1.42158 1.8974,-4.65551 0.59472,-5.92169 -0.71296,-0.69298 -1.73728,0.0374 -2.40943,0.41647 -2.2149,1.24907 -4.37217,1.54049 -6.87917,1.53647 -7.24559,-0.0116 -13.76361,-3.44728 -21.16667,-2.41576 -2.58871,0.36071 -5.78815,0.75659 -7.22827,3.21052 -3.16675,5.39603 -4.1336,13.00754 -5.56318,19.04898 -0.31251,1.32073 -1.9015,5.44484 -0.1127,6.18627 1.12026,0.46434 2.42529,-0.43285 2.84529,-1.4352 1.44983,-3.46016 1.9184,-7.59613 5.82553,-9.28063 3.05826,-1.31852 6.37138,-0.44228 9.525,-0.003 5.4259,0.75605 10.4096,1.32753 15.875,1.09283 m -113.506254,-6.35 c -1.533587,11.87516 -5.594813,23.84782 -8.500151,35.45417 -0.752651,3.0067 -1.496106,6.01542 -2.347766,8.99583 -0.281991,0.98685 -0.382728,2.76298 -1.207565,3.45591 -1.119481,0.94046 -3.52388,0.51284 -4.877851,0.51284 H 54.707252 c 4.759206,-12.26705 11.861946,-24.01062 19.138198,-34.925 2.951725,-4.42759 6.162964,-10.30521 10.495136,-13.49375 m 53.445834,0.52917 -3.07598,13.49375 -5.55646,22.48958 -2.25549,8.73125 -1.39376,3.35547 -4.91623,0.3487 h -12.43541 c 4.75862,-12.26548 11.86236,-24.01125 19.13819,-34.925 2.95174,-4.4276 6.16296,-10.30519 10.49514,-13.49375 z"
       id="path108" /></g></svg>
